<svg xmlns="http://www.w3.org/2000/svg" viewBox="0 0 770 109" width="770" height="109" role="img" aria-label="DISPATCH">
  <rect x="0" y="0" width="13" height="13" rx="1.56" fill="#e8eaf0"/>
  <rect x="3.5" y="3.5" width="6" height="6" rx="0.8" fill="#0a0c11"/>
  <rect x="16" y="0" width="13" height="13" rx="1.56" fill="#e8eaf0"/>
  <rect x="19.5" y="3.5" width="6" height="6" rx="0.8" fill="#0a0c11"/>
  <rect x="32" y="0" width="13" height="13" rx="1.56" fill="#e8eaf0"/>
  <rect x="35.5" y="3.5" width="6" height="6" rx="0.8" fill="#0a0c11"/>
  <rect x="48" y="0" width="13" height="13" rx="1.56" fill="#e8eaf0"/>
  <rect x="51.5" y="3.5" width="6" height="6" rx="0.8" fill="#0a0c11"/>
  <rect x="0" y="16" width="13" height="13" rx="1.56" fill="#e8eaf0"/>
  <rect x="64" y="16" width="13" height="13" rx="1.56" fill="#e8eaf0"/>
  <rect x="67.5" y="19.5" width="6" height="6" rx="0.8" fill="#0a0c11"/>
  <rect x="0" y="32" width="13" height="13" rx="1.56" fill="#e8eaf0"/>
  <rect x="3.5" y="35.5" width="6" height="6" rx="0.8" fill="#0a0c11"/>
  <rect x="64" y="32" width="13" height="13" rx="1.56" fill="#e8eaf0"/>
  <rect x="0" y="48" width="13" height="13" rx="1.56" fill="#e8eaf0"/>
  <rect x="3.5" y="51.5" width="6" height="6" rx="0.8" fill="#0a0c11"/>
  <rect x="64" y="48" width="13" height="13" rx="1.56" fill="#e8eaf0"/>
  <rect x="67.5" y="51.5" width="6" height="6" rx="0.8" fill="#0a0c11"/>
  <rect x="0" y="64" width="13" height="13" rx="1.56" fill="#e8eaf0"/>
  <rect x="3.5" y="67.5" width="6" height="6" rx="0.8" fill="#0a0c11"/>
  <rect x="64" y="64" width="13" height="13" rx="1.56" fill="#e8eaf0"/>
  <rect x="67.5" y="67.5" width="6" height="6" rx="0.8" fill="#0a0c11"/>
  <rect x="0" y="80" width="13" height="13" rx="1.56" fill="#e8eaf0"/>
  <rect x="3.5" y="83.5" width="6" height="6" rx="0.8" fill="#0a0c11"/>
  <rect x="64" y="80" width="13" height="13" rx="1.56" fill="#e8eaf0"/>
  <rect x="67.5" y="83.5" width="6" height="6" rx="0.8" fill="#0a0c11"/>
  <rect x="0" y="96" width="13" height="13" rx="1.56" fill="#e8eaf0"/>
  <rect x="3.5" y="99.5" width="6" height="6" rx="0.8" fill="#0a0c11"/>
  <rect x="16" y="96" width="13" height="13" rx="1.56" fill="#e8eaf0"/>
  <rect x="19.5" y="99.5" width="6" height="6" rx="0.8" fill="#0a0c11"/>
  <rect x="32" y="96" width="13" height="13" rx="1.56" fill="#e8eaf0"/>
  <rect x="48" y="96" width="13" height="13" rx="1.56" fill="#e8eaf0"/>
  <rect x="51.5" y="99.5" width="6" height="6" rx="0.8" fill="#0a0c11"/>
  <rect x="99" y="0" width="13" height="13" rx="1.56" fill="#e8eaf0"/>
  <rect x="102.5" y="3.5" width="6" height="6" rx="0.8" fill="#0a0c11"/>
  <rect x="115" y="0" width="13" height="13" rx="1.56" fill="#e8eaf0"/>
  <rect x="131" y="0" width="13" height="13" rx="1.56" fill="#e8eaf0"/>
  <rect x="134.5" y="3.5" width="6" height="6" rx="0.8" fill="#0a0c11"/>
  <rect x="147" y="0" width="13" height="13" rx="1.56" fill="#e8eaf0"/>
  <rect x="150.5" y="3.5" width="6" height="6" rx="0.8" fill="#0a0c11"/>
  <rect x="163" y="0" width="13" height="13" rx="1.56" fill="#e8eaf0"/>
  <rect x="166.5" y="3.5" width="6" height="6" rx="0.8" fill="#0a0c11"/>
  <rect x="131" y="16" width="13" height="13" rx="1.56" fill="#e8eaf0"/>
  <rect x="134.5" y="19.5" width="6" height="6" rx="0.8" fill="#0a0c11"/>
  <rect x="131" y="32" width="13" height="13" rx="1.56" fill="#e8eaf0"/>
  <rect x="134.5" y="35.5" width="6" height="6" rx="0.8" fill="#0a0c11"/>
  <rect x="131" y="48" width="13" height="13" rx="1.56" fill="#e8eaf0"/>
  <rect x="134.5" y="51.5" width="6" height="6" rx="0.8" fill="#0a0c11"/>
  <rect x="131" y="64" width="13" height="13" rx="1.56" fill="#e8eaf0"/>
  <rect x="134.5" y="67.5" width="6" height="6" rx="0.8" fill="#0a0c11"/>
  <rect x="131" y="80" width="13" height="13" rx="1.56" fill="#e8eaf0"/>
  <rect x="134.5" y="83.5" width="6" height="6" rx="0.8" fill="#0a0c11"/>
  <rect x="99" y="96" width="13" height="13" rx="1.56" fill="#e8eaf0"/>
  <rect x="102.5" y="99.5" width="6" height="6" rx="0.8" fill="#0a0c11"/>
  <rect x="115" y="96" width="13" height="13" rx="1.56" fill="#e8eaf0"/>
  <rect x="118.5" y="99.5" width="6" height="6" rx="0.8" fill="#0a0c11"/>
  <rect x="131" y="96" width="13" height="13" rx="1.56" fill="#e8eaf0"/>
  <rect x="134.5" y="99.5" width="6" height="6" rx="0.8" fill="#0a0c11"/>
  <rect x="147" y="96" width="13" height="13" rx="1.56" fill="#e8eaf0"/>
  <rect x="150.5" y="99.5" width="6" height="6" rx="0.8" fill="#0a0c11"/>
  <rect x="163" y="96" width="13" height="13" rx="1.56" fill="#e8eaf0"/>
  <rect x="166.5" y="99.5" width="6" height="6" rx="0.8" fill="#0a0c11"/>
  <rect x="198" y="0" width="13" height="13" rx="1.56" fill="#e8eaf0"/>
  <rect x="201.5" y="3.5" width="6" height="6" rx="0.8" fill="#0a0c11"/>
  <rect x="214" y="0" width="13" height="13" rx="1.56" fill="#e8eaf0"/>
  <rect x="217.5" y="3.5" width="6" height="6" rx="0.8" fill="#0a0c11"/>
  <rect x="230" y="0" width="13" height="13" rx="1.56" fill="#e8eaf0"/>
  <rect x="246" y="0" width="13" height="13" rx="1.56" fill="#e8eaf0"/>
  <rect x="249.5" y="3.5" width="6" height="6" rx="0.8" fill="#0a0c11"/>
  <rect x="262" y="0" width="13" height="13" rx="1.56" fill="#e8eaf0"/>
  <rect x="265.5" y="3.5" width="6" height="6" rx="0.8" fill="#0a0c11"/>
  <rect x="198" y="16" width="13" height="13" rx="1.56" fill="#e8eaf0"/>
  <rect x="201.5" y="19.5" width="6" height="6" rx="0.8" fill="#0a0c11"/>
  <rect x="198" y="32" width="13" height="13" rx="1.56" fill="#e8eaf0"/>
  <rect x="201.5" y="35.5" width="6" height="6" rx="0.8" fill="#0a0c11"/>
  <rect x="198" y="48" width="13" height="13" rx="1.56" fill="#e8eaf0"/>
  <rect x="201.5" y="51.5" width="6" height="6" rx="0.8" fill="#0a0c11"/>
  <rect x="214" y="48" width="13" height="13" rx="1.56" fill="#e8eaf0"/>
  <rect x="217.5" y="51.5" width="6" height="6" rx="0.8" fill="#0a0c11"/>
  <rect x="230" y="48" width="13" height="13" rx="1.56" fill="#e8eaf0"/>
  <rect x="233.5" y="51.5" width="6" height="6" rx="0.8" fill="#0a0c11"/>
  <rect x="246" y="48" width="13" height="13" rx="1.56" fill="#e8eaf0"/>
  <rect x="249.5" y="51.5" width="6" height="6" rx="0.8" fill="#0a0c11"/>
  <rect x="262" y="48" width="13" height="13" rx="1.56" fill="#e8eaf0"/>
  <rect x="265.5" y="51.5" width="6" height="6" rx="0.8" fill="#0a0c11"/>
  <rect x="262" y="64" width="13" height="13" rx="1.56" fill="#e8eaf0"/>
  <rect x="265.5" y="67.5" width="6" height="6" rx="0.8" fill="#0a0c11"/>
  <rect x="262" y="80" width="13" height="13" rx="1.56" fill="#e8eaf0"/>
  <rect x="198" y="96" width="13" height="13" rx="1.56" fill="#e8eaf0"/>
  <rect x="201.5" y="99.5" width="6" height="6" rx="0.8" fill="#0a0c11"/>
  <rect x="214" y="96" width="13" height="13" rx="1.56" fill="#e8eaf0"/>
  <rect x="217.5" y="99.5" width="6" height="6" rx="0.8" fill="#0a0c11"/>
  <rect x="230" y="96" width="13" height="13" rx="1.56" fill="#e8eaf0"/>
  <rect x="233.5" y="99.5" width="6" height="6" rx="0.8" fill="#0a0c11"/>
  <rect x="246" y="96" width="13" height="13" rx="1.56" fill="#e8eaf0"/>
  <rect x="249.5" y="99.5" width="6" height="6" rx="0.8" fill="#0a0c11"/>
  <rect x="262" y="96" width="13" height="13" rx="1.56" fill="#e8eaf0"/>
  <rect x="265.5" y="99.5" width="6" height="6" rx="0.8" fill="#0a0c11"/>
  <rect x="297" y="0" width="13" height="13" rx="1.56" fill="#e8eaf0"/>
  <rect x="300.5" y="3.5" width="6" height="6" rx="0.8" fill="#0a0c11"/>
  <rect x="313" y="0" width="13" height="13" rx="1.56" fill="#e8eaf0"/>
  <rect x="316.5" y="3.5" width="6" height="6" rx="0.8" fill="#0a0c11"/>
  <rect x="329" y="0" width="13" height="13" rx="1.56" fill="#e8eaf0"/>
  <rect x="332.5" y="3.5" width="6" height="6" rx="0.8" fill="#0a0c11"/>
  <rect x="345" y="0" width="13" height="13" rx="1.56" fill="#e8eaf0"/>
  <rect x="348.5" y="3.5" width="6" height="6" rx="0.8" fill="#0a0c11"/>
  <rect x="297" y="16" width="13" height="13" rx="1.56" fill="#e8eaf0"/>
  <rect x="300.5" y="19.5" width="6" height="6" rx="0.8" fill="#0a0c11"/>
  <rect x="361" y="16" width="13" height="13" rx="1.56" fill="#e8eaf0"/>
  <rect x="364.5" y="19.5" width="6" height="6" rx="0.8" fill="#0a0c11"/>
  <rect x="297" y="32" width="13" height="13" rx="1.56" fill="#e8eaf0"/>
  <rect x="300.5" y="35.5" width="6" height="6" rx="0.8" fill="#0a0c11"/>
  <rect x="361" y="32" width="13" height="13" rx="1.56" fill="#e8eaf0"/>
  <rect x="364.5" y="35.5" width="6" height="6" rx="0.8" fill="#0a0c11"/>
  <rect x="297" y="48" width="13" height="13" rx="1.56" fill="#e8eaf0"/>
  <rect x="300.5" y="51.5" width="6" height="6" rx="0.8" fill="#0a0c11"/>
  <rect x="313" y="48" width="13" height="13" rx="1.56" fill="#e8eaf0"/>
  <rect x="316.5" y="51.5" width="6" height="6" rx="0.8" fill="#0a0c11"/>
  <rect x="329" y="48" width="13" height="13" rx="1.56" fill="#e8eaf0"/>
  <rect x="345" y="48" width="13" height="13" rx="1.56" fill="#e8eaf0"/>
  <rect x="348.5" y="51.5" width="6" height="6" rx="0.8" fill="#0a0c11"/>
  <rect x="297" y="64" width="13" height="13" rx="1.56" fill="#e8eaf0"/>
  <rect x="300.5" y="67.5" width="6" height="6" rx="0.8" fill="#0a0c11"/>
  <rect x="297" y="80" width="13" height="13" rx="1.56" fill="#e8eaf0"/>
  <rect x="300.5" y="83.5" width="6" height="6" rx="0.8" fill="#0a0c11"/>
  <rect x="297" y="96" width="13" height="13" rx="1.56" fill="#e8eaf0"/>
  <rect x="300.5" y="99.5" width="6" height="6" rx="0.8" fill="#0a0c11"/>
  <rect x="412" y="0" width="13" height="13" rx="1.56" fill="#e8eaf0"/>
  <rect x="415.5" y="3.5" width="6" height="6" rx="0.8" fill="#0a0c11"/>
  <rect x="428" y="0" width="13" height="13" rx="1.56" fill="#e8eaf0"/>
  <rect x="444" y="0" width="13" height="13" rx="1.56" fill="#e8eaf0"/>
  <rect x="447.5" y="3.5" width="6" height="6" rx="0.8" fill="#0a0c11"/>
  <rect x="396" y="16" width="13" height="13" rx="1.56" fill="#e8eaf0"/>
  <rect x="399.5" y="19.5" width="6" height="6" rx="0.8" fill="#0a0c11"/>
  <rect x="460" y="16" width="13" height="13" rx="1.56" fill="#e8eaf0"/>
  <rect x="463.5" y="19.5" width="6" height="6" rx="0.8" fill="#0a0c11"/>
  <rect x="396" y="32" width="13" height="13" rx="1.56" fill="#e8eaf0"/>
  <rect x="399.5" y="35.5" width="6" height="6" rx="0.8" fill="#0a0c11"/>
  <rect x="460" y="32" width="13" height="13" rx="1.56" fill="#e8eaf0"/>
  <rect x="463.5" y="35.5" width="6" height="6" rx="0.8" fill="#0a0c11"/>
  <rect x="396" y="48" width="13" height="13" rx="1.56" fill="#e8eaf0"/>
  <rect x="399.5" y="51.5" width="6" height="6" rx="0.8" fill="#0a0c11"/>
  <rect x="412" y="48" width="13" height="13" rx="1.56" fill="#e8eaf0"/>
  <rect x="415.5" y="51.5" width="6" height="6" rx="0.8" fill="#0a0c11"/>
  <rect x="428" y="48" width="13" height="13" rx="1.56" fill="#e8eaf0"/>
  <rect x="431.5" y="51.5" width="6" height="6" rx="0.8" fill="#0a0c11"/>
  <rect x="444" y="48" width="13" height="13" rx="1.56" fill="#e8eaf0"/>
  <rect x="447.5" y="51.5" width="6" height="6" rx="0.8" fill="#0a0c11"/>
  <rect x="460" y="48" width="13" height="13" rx="1.56" fill="#e8eaf0"/>
  <rect x="463.5" y="51.5" width="6" height="6" rx="0.8" fill="#0a0c11"/>
  <rect x="396" y="64" width="13" height="13" rx="1.56" fill="#e8eaf0"/>
  <rect x="460" y="64" width="13" height="13" rx="1.56" fill="#e8eaf0"/>
  <rect x="463.5" y="67.5" width="6" height="6" rx="0.8" fill="#0a0c11"/>
  <rect x="396" y="80" width="13" height="13" rx="1.56" fill="#e8eaf0"/>
  <rect x="399.5" y="83.5" width="6" height="6" rx="0.8" fill="#0a0c11"/>
  <rect x="460" y="80" width="13" height="13" rx="1.56" fill="#e8eaf0"/>
  <rect x="396" y="96" width="13" height="13" rx="1.56" fill="#e8eaf0"/>
  <rect x="399.5" y="99.5" width="6" height="6" rx="0.8" fill="#0a0c11"/>
  <rect x="460" y="96" width="13" height="13" rx="1.56" fill="#e8eaf0"/>
  <rect x="463.5" y="99.5" width="6" height="6" rx="0.8" fill="#0a0c11"/>
  <rect x="495" y="0" width="13" height="13" rx="1.56" fill="#e8eaf0"/>
  <rect x="498.5" y="3.5" width="6" height="6" rx="0.8" fill="#0a0c11"/>
  <rect x="511" y="0" width="13" height="13" rx="1.56" fill="#e8eaf0"/>
  <rect x="514.5" y="3.5" width="6" height="6" rx="0.8" fill="#0a0c11"/>
  <rect x="527" y="0" width="13" height="13" rx="1.56" fill="#e8eaf0"/>
  <rect x="530.5" y="3.5" width="6" height="6" rx="0.8" fill="#0a0c11"/>
  <rect x="543" y="0" width="13" height="13" rx="1.56" fill="#e8eaf0"/>
  <rect x="559" y="0" width="13" height="13" rx="1.56" fill="#e8eaf0"/>
  <rect x="562.5" y="3.5" width="6" height="6" rx="0.8" fill="#0a0c11"/>
  <rect x="527" y="16" width="13" height="13" rx="1.56" fill="#e8eaf0"/>
  <rect x="530.5" y="19.5" width="6" height="6" rx="0.8" fill="#0a0c11"/>
  <rect x="527" y="32" width="13" height="13" rx="1.56" fill="#e8eaf0"/>
  <rect x="527" y="48" width="13" height="13" rx="1.56" fill="#e8eaf0"/>
  <rect x="530.5" y="51.5" width="6" height="6" rx="0.8" fill="#0a0c11"/>
  <rect x="527" y="64" width="13" height="13" rx="1.56" fill="#e8eaf0"/>
  <rect x="530.5" y="67.5" width="6" height="6" rx="0.8" fill="#0a0c11"/>
  <rect x="527" y="80" width="13" height="13" rx="1.56" fill="#e8eaf0"/>
  <rect x="530.5" y="83.5" width="6" height="6" rx="0.8" fill="#0a0c11"/>
  <rect x="527" y="96" width="13" height="13" rx="1.56" fill="#e8eaf0"/>
  <rect x="530.5" y="99.5" width="6" height="6" rx="0.8" fill="#0a0c11"/>
  <rect x="594" y="0" width="13" height="13" rx="1.56" fill="#e8eaf0"/>
  <rect x="597.5" y="3.5" width="6" height="6" rx="0.8" fill="#0a0c11"/>
  <rect x="610" y="0" width="13" height="13" rx="1.56" fill="#e8eaf0"/>
  <rect x="613.5" y="3.5" width="6" height="6" rx="0.8" fill="#0a0c11"/>
  <rect x="626" y="0" width="13" height="13" rx="1.56" fill="#e8eaf0"/>
  <rect x="629.5" y="3.5" width="6" height="6" rx="0.8" fill="#0a0c11"/>
  <rect x="642" y="0" width="13" height="13" rx="1.56" fill="#e8eaf0"/>
  <rect x="645.5" y="3.5" width="6" height="6" rx="0.8" fill="#0a0c11"/>
  <rect x="658" y="0" width="13" height="13" rx="1.56" fill="#e8eaf0"/>
  <rect x="594" y="16" width="13" height="13" rx="1.56" fill="#e8eaf0"/>
  <rect x="597.5" y="19.5" width="6" height="6" rx="0.8" fill="#0a0c11"/>
  <rect x="594" y="32" width="13" height="13" rx="1.56" fill="#e8eaf0"/>
  <rect x="597.5" y="35.5" width="6" height="6" rx="0.8" fill="#0a0c11"/>
  <rect x="594" y="48" width="13" height="13" rx="1.56" fill="#e8eaf0"/>
  <rect x="597.5" y="51.5" width="6" height="6" rx="0.8" fill="#0a0c11"/>
  <rect x="594" y="64" width="13" height="13" rx="1.56" fill="#e8eaf0"/>
  <rect x="597.5" y="67.5" width="6" height="6" rx="0.8" fill="#0a0c11"/>
  <rect x="594" y="80" width="13" height="13" rx="1.56" fill="#e8eaf0"/>
  <rect x="597.5" y="83.5" width="6" height="6" rx="0.8" fill="#0a0c11"/>
  <rect x="594" y="96" width="13" height="13" rx="1.56" fill="#e8eaf0"/>
  <rect x="597.5" y="99.5" width="6" height="6" rx="0.8" fill="#0a0c11"/>
  <rect x="610" y="96" width="13" height="13" rx="1.56" fill="#e8eaf0"/>
  <rect x="626" y="96" width="13" height="13" rx="1.56" fill="#e8eaf0"/>
  <rect x="629.5" y="99.5" width="6" height="6" rx="0.8" fill="#0a0c11"/>
  <rect x="642" y="96" width="13" height="13" rx="1.56" fill="#e8eaf0"/>
  <rect x="645.5" y="99.5" width="6" height="6" rx="0.8" fill="#0a0c11"/>
  <rect x="658" y="96" width="13" height="13" rx="1.56" fill="#e8eaf0"/>
  <rect x="661.5" y="99.5" width="6" height="6" rx="0.8" fill="#0a0c11"/>
  <rect x="693" y="0" width="13" height="13" rx="1.56" fill="#e8eaf0"/>
  <rect x="757" y="0" width="13" height="13" rx="1.56" fill="#e8eaf0"/>
  <rect x="760.5" y="3.5" width="6" height="6" rx="0.8" fill="#0a0c11"/>
  <rect x="693" y="16" width="13" height="13" rx="1.56" fill="#e8eaf0"/>
  <rect x="696.5" y="19.5" width="6" height="6" rx="0.8" fill="#0a0c11"/>
  <rect x="757" y="16" width="13" height="13" rx="1.56" fill="#e8eaf0"/>
  <rect x="693" y="32" width="13" height="13" rx="1.56" fill="#e8eaf0"/>
  <rect x="696.5" y="35.5" width="6" height="6" rx="0.8" fill="#0a0c11"/>
  <rect x="757" y="32" width="13" height="13" rx="1.56" fill="#e8eaf0"/>
  <rect x="760.5" y="35.5" width="6" height="6" rx="0.8" fill="#0a0c11"/>
  <rect x="693" y="48" width="13" height="13" rx="1.56" fill="#e8eaf0"/>
  <rect x="696.5" y="51.5" width="6" height="6" rx="0.8" fill="#0a0c11"/>
  <rect x="709" y="48" width="13" height="13" rx="1.56" fill="#e8eaf0"/>
  <rect x="712.5" y="51.5" width="6" height="6" rx="0.8" fill="#0a0c11"/>
  <rect x="725" y="48" width="13" height="13" rx="1.56" fill="#e8eaf0"/>
  <rect x="728.5" y="51.5" width="6" height="6" rx="0.8" fill="#0a0c11"/>
  <rect x="741" y="48" width="13" height="13" rx="1.56" fill="#e8eaf0"/>
  <rect x="757" y="48" width="13" height="13" rx="1.56" fill="#e8eaf0"/>
  <rect x="760.5" y="51.5" width="6" height="6" rx="0.8" fill="#0a0c11"/>
  <rect x="693" y="64" width="13" height="13" rx="1.56" fill="#e8eaf0"/>
  <rect x="696.5" y="67.5" width="6" height="6" rx="0.8" fill="#0a0c11"/>
  <rect x="757" y="64" width="13" height="13" rx="1.56" fill="#e8eaf0"/>
  <rect x="760.5" y="67.5" width="6" height="6" rx="0.8" fill="#0a0c11"/>
  <rect x="693" y="80" width="13" height="13" rx="1.56" fill="#e8eaf0"/>
  <rect x="696.5" y="83.5" width="6" height="6" rx="0.8" fill="#0a0c11"/>
  <rect x="757" y="80" width="13" height="13" rx="1.56" fill="#e8eaf0"/>
  <rect x="760.5" y="83.5" width="6" height="6" rx="0.8" fill="#0a0c11"/>
  <rect x="693" y="96" width="13" height="13" rx="1.56" fill="#e8eaf0"/>
  <rect x="696.5" y="99.5" width="6" height="6" rx="0.8" fill="#0a0c11"/>
  <rect x="757" y="96" width="13" height="13" rx="1.56" fill="#e8eaf0"/>
  <rect x="760.5" y="99.5" width="6" height="6" rx="0.8" fill="#0a0c11"/>
</svg>
